<svg xmlns="http://www.w3.org/2000/svg" viewBox="0 0 1040 320" role="img" aria-label="AI怎麼知道紀錄被別人動過：每次查詢票單狀態，AI都會重新讀取磁碟上三份紀錄現在的實際內容，跟上次記錄的內容比對，不是拿兩個舊記錄互相比。一樣的話代表資料可信，可以放心用摘要；不一樣的話代表這份檔案在AI不知情的狀況下被改過，摘要可能已經過期，應該重新讀全文，確認沒問題後可以請AI把記錄同步成目前的內容">
  <defs>
    <marker id="arrowDetect" viewBox="0 0 10 10" refX="8.5" refY="5" markerWidth="6.5" markerHeight="6.5" orient="auto-start-reverse">
      <path d="M0,0 L10,5 L0,10 z" fill="#2a2620"/>
    </marker>
    <marker id="arrowDetectGood" viewBox="0 0 10 10" refX="8.5" refY="5" markerWidth="6.5" markerHeight="6.5" orient="auto-start-reverse">
      <path d="M0,0 L10,5 L0,10 z" fill="#4c7a52"/>
    </marker>
    <marker id="arrowDetectStale" viewBox="0 0 10 10" refX="8.5" refY="5" markerWidth="6.5" markerHeight="6.5" orient="auto-start-reverse">
      <path d="M0,0 L10,5 L0,10 z" fill="#a84b36"/>
    </marker>
  </defs>

  <rect x="0" y="0" width="1040" height="320" fill="#f5f2ea"/>

  <g font-family="'Noto Sans TC',sans-serif">
    <rect x="20" y="110" width="150" height="60" rx="9" fill="none" stroke="#2a2620" stroke-opacity="0.85"/>
    <text x="95" y="135" text-anchor="middle" font-size="13" font-weight="700" fill="#2a2620">查詢票單狀態</text>
    <text x="95" y="153" text-anchor="middle" font-family="'IBM Plex Mono',sans-serif" font-size="9.5" fill="#6b6558">get_ticket_status</text>

    <rect x="210" y="105" width="230" height="70" rx="9" fill="#e3dcc9" stroke="#2a2620" stroke-opacity="0.85"/>
    <text x="325" y="130" text-anchor="middle" font-size="12.5" fill="#2a2620">重新讀一次磁碟上</text>
    <text x="325" y="148" text-anchor="middle" font-size="12.5" fill="#2a2620">現在的實際內容</text>

    <polygon points="580,95 655,140 580,185 505,140" fill="#dbe9ea" stroke="#2b6777" stroke-width="1.4"/>
    <text x="580" y="134" text-anchor="middle" font-size="12" font-weight="700" fill="#17414c">跟上次記錄</text>
    <text x="580" y="150" text-anchor="middle" font-size="12" font-weight="700" fill="#17414c">的一樣嗎？</text>

    <rect x="740" y="105" width="210" height="70" rx="9" fill="#dfe9dd" stroke="#4c7a52"/>
    <text x="845" y="130" text-anchor="middle" font-size="13" font-weight="700" fill="#4c7a52">✅ 資料可信</text>
    <text x="845" y="148" text-anchor="middle" font-size="10.5" fill="#4c7a52" opacity="0.85">放心用摘要就好</text>

    <rect x="360" y="225" width="440" height="80" rx="9" fill="#f2dbd2" stroke="#a84b36"/>
    <text x="580" y="248" text-anchor="middle" font-size="13" font-weight="700" fill="#a84b36">⚠ 被別人動過了</text>
    <text x="580" y="266" text-anchor="middle" font-size="11" fill="#a84b36">摘要可能已經過期，AI 會改讀完整內容</text>
    <text x="580" y="284" text-anchor="middle" font-size="11" fill="#a84b36">你確認內容沒問題後，可以請 AI 把記錄同步成目前版本</text>
  </g>

  <line x1="170" y1="140" x2="206" y2="140" stroke="#2a2620" stroke-width="1.6" marker-end="url(#arrowDetect)"/>
  <line x1="440" y1="140" x2="501" y2="140" stroke="#2a2620" stroke-width="1.6" marker-end="url(#arrowDetect)"/>
  <line x1="655" y1="140" x2="736" y2="140" stroke="#4c7a52" stroke-width="1.6" marker-end="url(#arrowDetectGood)"/>
  <text x="695" y="128" text-anchor="middle" font-family="'Noto Sans TC',sans-serif" font-size="11" fill="#4c7a52">一樣</text>
  <line x1="580" y1="185" x2="580" y2="221" stroke="#a84b36" stroke-width="1.6" marker-end="url(#arrowDetectStale)"/>
  <text x="612" y="207" text-anchor="middle" font-family="'Noto Sans TC',sans-serif" font-size="11" fill="#a84b36">不一樣</text>
</svg>
